<svg width="32" height="32" viewBox="0 0 32 32" fill="none" xmlns="http://www.w3.org/2000/svg">
  <rect width="32" height="32" rx="4" fill="#F7DF1E"/>
  <path d="M8 8H24V24H8V8Z" fill="#323330"/>
  <path d="M12 18C12 19.1046 12.8954 20 14 20H16C17.1046 20 18 19.1046 18 18V16C18 14.8954 17.1046 14 16 14H14V16H16V18H14C13.4477 18 13 17.5523 13 17V15C13 13.8954 13.8954 13 15 13H17V11H15C13.8954 11 13 11.8954 13 13V15C13 15.5523 13.4477 16 14 16H16C17.1046 16 18 16.8954 18 18V20C18 21.1046 17.1046 22 16 22H14C12.8954 22 12 21.1046 12 20V18Z" fill="#F7DF1E"/>
</svg>
