<svg width="345" height="16" viewBox="0 0 345 16" fill="none" xmlns="http://www.w3.org/2000/svg">
<mask id="mask0_1_120" style="mask-type:luminance" maskUnits="userSpaceOnUse" x="0" y="0" width="345" height="16">
<path d="M345 16H0V0H345V16Z" fill="white"/>
</mask>
<g mask="url(#mask0_1_120)">
<path d="M6.0818 -4.03027L-15.2182 17.2697H-5.88821L15.2018 -3.82029L6.0818 -4.03027Z" fill="white"/>
<path d="M22.5018 -4.03027L1.20178 17.2697H10.5318L31.6218 -3.82029L22.5018 -4.03027Z" fill="white"/>
<path d="M38.9218 -4.03027L17.6218 17.2697H26.9518L48.0418 -3.82029L38.9218 -4.03027Z" fill="white"/>
<path d="M55.3418 -4.03027L34.0418 17.2697H43.3718L64.4618 -3.82029L55.3418 -4.03027Z" fill="white"/>
<path d="M71.7618 -4.03027L50.4618 17.2697H59.7918L80.8818 -3.82029L71.7618 -4.03027Z" fill="white"/>
<path d="M88.1818 -4.03027L66.8818 17.2697H76.2418L97.3018 -3.82029L88.1818 -4.03027Z" fill="white"/>
<path d="M104.602 -4.03027L83.3018 17.2697H92.6618L113.722 -3.82029L104.602 -4.03027Z" fill="white"/>
<path d="M121.052 -4.03027L99.7218 17.2697H109.082L130.142 -3.82029L121.052 -4.03027Z" fill="white"/>
<path d="M137.442 -4.03027L116.142 17.2697H125.472L146.562 -3.82029L137.442 -4.03027Z" fill="white"/>
<path d="M153.862 -4.03027L132.562 17.2697H141.892L162.982 -3.82029L153.862 -4.03027Z" fill="white"/>
<path d="M170.282 -4.03027L148.982 17.2697H158.312L179.402 -3.82029L170.282 -4.03027Z" fill="white"/>
<path d="M186.702 -4.03027L165.402 17.2697H174.732L195.822 -3.82029L186.702 -4.03027Z" fill="white"/>
<path d="M203.122 -4.03027L181.822 17.2697H191.152L212.242 -3.82029L203.122 -4.03027Z" fill="white"/>
<path d="M219.542 -4.03027L198.242 17.2697H207.572L228.662 -3.82029L219.542 -4.03027Z" fill="white"/>
<path d="M235.962 -4.03027L214.662 17.2697H223.992L245.082 -3.82029L235.962 -4.03027Z" fill="white"/>
<path d="M252.382 -4.03027L231.082 17.2697H240.412L261.502 -3.82029L252.382 -4.03027Z" fill="white"/>
<path d="M268.802 -4.03027L247.502 17.2697H256.832L277.922 -3.82029L268.802 -4.03027Z" fill="white"/>
<path d="M285.222 -4.03027L263.922 17.2697H273.282L294.342 -3.82029L285.222 -4.03027Z" fill="white"/>
<path d="M301.642 -4.03027L280.342 17.2697H289.702L310.762 -3.82029L301.642 -4.03027Z" fill="white"/>
<path d="M318.092 -4.03027L296.762 17.2697H306.122L327.212 -3.82029L318.092 -4.03027Z" fill="white"/>
<path d="M334.512 -4.03027L313.212 17.2697H322.542L343.632 -3.82029L334.512 -4.03027Z" fill="white"/>
<path d="M350.932 -4.03027L329.632 17.2697H338.962L360.052 -3.82029L350.932 -4.03027Z" fill="white"/>
</g>
</svg>
