<svg width="901" height="103" viewBox="0 0 901 103" fill="none" xmlns="http://www.w3.org/2000/svg">
<path d="M42.256 103C41.3173 103 40.5067 102.659 39.824 101.976C39.1413 101.293 38.8 100.483 38.8 99.5441V32.3441C38.8 30.6374 38.2027 29.1868 37.008 27.9921C35.8133 26.7974 34.3627 26.2001 32.656 26.2001H3.85599C2.91733 26.2001 2.10666 25.8588 1.42399 25.1761C0.741327 24.4934 0.399994 23.6828 0.399994 22.7441V4.05609C0.399994 3.11743 0.741327 2.30676 1.42399 1.62409C2.10666 0.941429 2.91733 0.600098 3.85599 0.600098H35.344C36.2827 0.600098 37.0933 0.941429 37.776 1.62409C38.4587 2.30676 38.8 3.11743 38.8 4.05609V20.0561C38.8 21.6774 39.3973 23.1281 40.592 24.4081C41.872 25.6028 43.3227 26.2001 44.944 26.2001H58.256C59.9627 26.2001 61.4133 25.6028 62.608 24.4081C63.8027 23.1281 64.4 21.6774 64.4 20.0561V4.05609C64.4 3.11743 64.7413 2.30676 65.424 1.62409C66.1067 0.941429 66.9173 0.600098 67.856 0.600098H99.344C100.283 0.600098 101.093 0.941429 101.776 1.62409C102.459 2.30676 102.8 3.11743 102.8 4.05609V22.7441C102.8 23.6828 102.459 24.4934 101.776 25.1761C101.093 25.8588 100.283 26.2001 99.344 26.2001H70.544C68.9227 26.2001 67.472 26.7974 66.192 27.9921C64.9973 29.1868 64.4 30.6374 64.4 32.3441V99.5441C64.4 100.483 64.0587 101.293 63.376 101.976C62.6933 102.659 61.8827 103 60.944 103H42.256Z" fill="black"/>
<path d="M119.106 103C118.167 103 117.357 102.659 116.674 101.976C115.991 101.293 115.65 100.483 115.65 99.5441V47.7041C115.65 46.7654 115.991 45.9548 116.674 45.2721C117.357 44.5894 118.167 44.2481 119.106 44.2481H136.258C137.282 44.2481 137.922 43.8214 138.178 42.9681C138.263 42.7974 138.306 42.5414 138.306 42.2001C138.306 41.6028 138.135 41.1334 137.794 40.7921C135.234 38.3174 132.461 35.5868 129.474 32.6001C126.487 29.5281 123.586 26.6268 120.77 23.8961L116.674 19.6721C115.991 18.9894 115.65 18.1788 115.65 17.2401V4.05609C115.65 3.11743 115.991 2.30676 116.674 1.62409C117.357 0.941429 118.167 0.600098 119.106 0.600098H214.594C215.533 0.600098 216.343 0.941429 217.026 1.62409C217.709 2.30676 218.05 3.11743 218.05 4.05609V55.8961C218.05 56.8348 217.709 57.6454 217.026 58.3281C216.343 59.0108 215.533 59.3521 214.594 59.3521H197.442C196.418 59.3521 195.778 59.7788 195.522 60.6321C195.437 60.8028 195.394 61.0588 195.394 61.4001C195.394 61.9974 195.565 62.4668 195.906 62.8081C198.466 65.2828 201.239 68.0561 204.226 71.1281C207.213 74.1148 210.114 76.9734 212.93 79.7041L217.026 83.9281C217.709 84.6108 218.05 85.4214 218.05 86.3601V99.5441C218.05 100.483 217.709 101.293 217.026 101.976C216.343 102.659 215.533 103 214.594 103H201.41C200.471 103 199.661 102.659 198.978 101.976L144.706 47.8321C144.279 47.4054 143.81 47.1921 143.298 47.1921C142.701 47.1921 142.189 47.4054 141.762 47.8321C141.421 48.2588 141.25 48.7281 141.25 49.2401V99.5441C141.25 100.483 140.909 101.293 140.226 101.976C139.543 102.659 138.733 103 137.794 103H119.106ZM161.346 27.4801C161.346 27.9068 161.474 28.2481 161.73 28.5041L181.058 47.9601L188.994 55.7681C189.421 56.1948 189.89 56.4081 190.402 56.4081C190.999 56.4081 191.469 56.1948 191.81 55.7681C192.237 55.3414 192.45 54.8721 192.45 54.3601V29.6561C192.45 28.7174 192.109 27.9068 191.426 27.2241C190.743 26.5414 189.933 26.2001 188.994 26.2001H162.626C162.114 26.2001 161.687 26.4988 161.346 27.0961V27.4801Z" fill="black"/>
<path d="M234.356 103C233.417 103 232.607 102.659 231.924 101.976C231.241 101.293 230.9 100.483 230.9 99.5441V86.3601C230.9 85.4214 231.241 84.6108 231.924 83.9281L314.228 1.62409C314.911 0.941429 315.721 0.600098 316.66 0.600098H329.844C330.783 0.600098 331.593 0.941429 332.276 1.62409C332.959 2.30676 333.3 3.11743 333.3 4.05609V17.2401C333.3 18.1788 332.959 18.9894 332.276 19.6721L328.18 23.8961C325.364 26.6268 322.463 29.5281 319.476 32.6001C316.489 35.5868 313.716 38.3174 311.156 40.7921C310.815 41.1334 310.644 41.6028 310.644 42.2001C310.644 43.5654 311.327 44.2481 312.692 44.2481H329.844C330.783 44.2481 331.593 44.5894 332.276 45.2721C332.959 45.9548 333.3 46.7654 333.3 47.7041V99.5441C333.3 100.483 332.959 101.293 332.276 101.976C331.593 102.659 330.783 103 329.844 103H311.156C310.217 103 309.407 102.659 308.724 101.976C308.041 101.293 307.7 100.483 307.7 99.5441V49.2401C307.7 48.3868 307.273 47.7468 306.42 47.3201C306.249 47.2348 305.993 47.1921 305.652 47.1921C305.14 47.1921 304.671 47.4054 304.244 47.8321L249.972 101.976C249.289 102.659 248.479 103 247.54 103H234.356Z" fill="black"/>
<path d="M349.606 103C348.667 103 347.857 102.659 347.174 101.976C346.491 101.293 346.15 100.483 346.15 99.5441V29.6561C346.15 28.7174 346.491 27.9068 347.174 27.2241C347.857 26.5414 348.667 26.2001 349.606 26.2001H365.606C367.313 26.2001 368.763 25.6028 369.958 24.4081C371.153 23.1281 371.75 21.6774 371.75 20.0561V4.05609C371.75 3.11743 372.091 2.30676 372.774 1.62409C373.457 0.941429 374.267 0.600098 375.206 0.600098H445.094C446.033 0.600098 446.843 0.941429 447.526 1.62409C448.209 2.30676 448.55 3.11743 448.55 4.05609V22.7441C448.55 23.6828 448.209 24.4934 447.526 25.1761C446.843 25.8588 446.033 26.2001 445.094 26.2001H377.894C376.187 26.2001 374.737 26.7974 373.542 27.9921C372.347 29.1868 371.75 30.6374 371.75 32.3441V73.9441C371.75 74.8828 372.091 75.6934 372.774 76.3761C373.457 77.0588 374.267 77.4001 375.206 77.4001H445.094C446.033 77.4001 446.843 77.7414 447.526 78.4241C448.209 79.1068 448.55 79.9174 448.55 80.8561V99.5441C448.55 100.483 448.209 101.293 447.526 101.976C446.843 102.659 446.033 103 445.094 103H349.606Z" fill="black"/>
<path d="M490.456 103C489.517 103 488.707 102.659 488.024 101.976C487.341 101.293 487 100.483 487 99.5441V83.5441C487 81.8374 486.403 80.3868 485.208 79.1921C484.013 77.9974 482.563 77.4001 480.856 77.4001H464.856C463.917 77.4001 463.107 77.0588 462.424 76.3761C461.741 75.6934 461.4 74.8828 461.4 73.9441V47.7041C461.4 46.7654 461.741 45.9548 462.424 45.2721C463.107 44.5894 463.917 44.2481 464.856 44.2481H482.008C483.032 44.2481 483.672 43.8214 483.928 42.9681C484.013 42.7974 484.056 42.5414 484.056 42.2001C484.056 41.6028 483.885 41.1334 483.544 40.7921C480.984 38.3174 478.211 35.5868 475.224 32.6001C472.237 29.5281 469.336 26.6268 466.52 23.8961L462.424 19.6721C461.741 18.9894 461.4 18.1788 461.4 17.2401V4.05609C461.4 3.11743 461.741 2.30676 462.424 1.62409C463.107 0.941429 463.917 0.600098 464.856 0.600098H560.344C561.283 0.600098 562.093 0.941429 562.776 1.62409C563.459 2.30676 563.8 3.11743 563.8 4.05609V22.7441C563.8 23.6828 563.459 24.4934 562.776 25.1761C562.093 25.8588 561.283 26.2001 560.344 26.2001H508.376C507.864 26.2001 507.437 26.4988 507.096 27.0961V27.4801C507.096 27.9068 507.224 28.2481 507.48 28.5041L516.952 37.9761C517.635 38.6588 518.445 39.0001 519.384 39.0001H560.344C561.283 39.0001 562.093 39.3414 562.776 40.0241C563.459 40.7068 563.8 41.5174 563.8 42.4561V61.1441C563.8 62.0828 563.459 62.8934 562.776 63.5761C562.093 64.2588 561.283 64.6001 560.344 64.6001H508.76C507.821 64.6001 507.011 64.2588 506.328 63.5761L490.456 47.8321C490.029 47.4054 489.56 47.1921 489.048 47.1921C488.451 47.1921 487.939 47.4054 487.512 47.8321C487.171 48.2588 487 48.7281 487 49.2401V71.2561C487 72.9628 487.597 74.4134 488.792 75.6081C489.987 76.8028 491.437 77.4001 493.144 77.4001H560.344C561.283 77.4001 562.093 77.7414 562.776 78.4241C563.459 79.1068 563.8 79.9174 563.8 80.8561V99.5441C563.8 100.483 563.459 101.293 562.776 101.976C562.093 102.659 561.283 103 560.344 103H490.456Z" fill="black"/>
<path d="M580.106 103C579.167 103 578.357 102.659 577.674 101.976C576.991 101.293 576.65 100.483 576.65 99.5441V47.7041C576.65 46.7654 576.991 45.9548 577.674 45.2721C578.357 44.5894 579.167 44.2481 580.106 44.2481H597.258C598.282 44.2481 598.922 43.8214 599.178 42.9681C599.263 42.7974 599.306 42.5414 599.306 42.2001C599.306 41.6028 599.135 41.1334 598.794 40.7921C596.234 38.3174 593.461 35.5868 590.474 32.6001C587.487 29.5281 584.586 26.6268 581.77 23.8961L577.674 19.6721C576.991 18.9894 576.65 18.1788 576.65 17.2401V4.05609C576.65 3.11743 576.991 2.30676 577.674 1.62409C578.357 0.941429 579.167 0.600098 580.106 0.600098H675.594C676.533 0.600098 677.343 0.941429 678.026 1.62409C678.709 2.30676 679.05 3.11743 679.05 4.05609V55.8961C679.05 56.8348 678.709 57.6454 678.026 58.3281C677.343 59.0108 676.533 59.3521 675.594 59.3521H658.442C657.418 59.3521 656.778 59.7788 656.522 60.6321C656.437 60.8028 656.394 61.0588 656.394 61.4001C656.394 61.9974 656.565 62.4668 656.906 62.8081C659.466 65.2828 662.239 68.0561 665.226 71.1281C668.213 74.1148 671.114 76.9734 673.93 79.7041L678.026 83.9281C678.709 84.6108 679.05 85.4214 679.05 86.3601V99.5441C679.05 100.483 678.709 101.293 678.026 101.976C677.343 102.659 676.533 103 675.594 103H662.41C661.471 103 660.661 102.659 659.978 101.976L605.706 47.8321C605.279 47.4054 604.81 47.1921 604.298 47.1921C603.701 47.1921 603.189 47.4054 602.762 47.8321C602.421 48.2588 602.25 48.7281 602.25 49.2401V99.5441C602.25 100.483 601.909 101.293 601.226 101.976C600.543 102.659 599.733 103 598.794 103H580.106ZM622.346 27.4801C622.346 27.9068 622.474 28.2481 622.73 28.5041L642.058 47.9601L649.994 55.7681C650.421 56.1948 650.89 56.4081 651.402 56.4081C651.999 56.4081 652.469 56.1948 652.81 55.7681C653.237 55.3414 653.45 54.8721 653.45 54.3601V29.6561C653.45 28.7174 653.109 27.9068 652.426 27.2241C651.743 26.5414 650.933 26.2001 649.994 26.2001H623.626C623.114 26.2001 622.687 26.4988 622.346 27.0961V27.4801Z" fill="black"/>
<path d="M831.342 32.8561C785.262 78.9361 762.222 101.976 762.222 101.976C761.539 102.659 760.729 103 759.79 103H746.606C745.667 103 744.857 102.659 744.174 101.976C743.491 101.293 743.15 100.483 743.15 99.5441V86.3601C743.15 85.4214 743.491 84.6108 744.174 83.9281C744.174 83.9281 767.214 60.8881 813.294 14.8081L826.478 1.62409C827.161 0.941429 827.971 0.600098 828.91 0.600098H842.094C843.033 0.600098 843.843 0.941429 844.526 1.62409C845.209 2.30676 845.55 3.11743 845.55 4.05609V17.2401C845.55 18.1788 845.209 18.9894 844.526 19.6721L831.342 32.8561Z" fill="black"/>
<path d="M886.467 32.8561C840.387 78.9361 817.347 101.976 817.347 101.976C816.664 102.659 815.854 103 814.915 103H801.731C800.792 103 799.982 102.659 799.299 101.976C798.616 101.293 798.275 100.483 798.275 99.5441V86.3601C798.275 85.4214 798.616 84.6108 799.299 83.9281C799.299 83.9281 822.339 60.8881 868.419 14.8081L881.603 1.62409C882.286 0.941429 883.096 0.600098 884.035 0.600098H897.219C898.158 0.600098 898.968 0.941429 899.651 1.62409C900.334 2.30676 900.675 3.11743 900.675 4.05609V17.2401C900.675 18.1788 900.334 18.9894 899.651 19.6721L886.467 32.8561Z" fill="black"/>
</svg>
